<svg viewBox="0 0 200 200" xmlns="http://www.w3.org/2000/svg">
  <!-- Birthday cake blob character -->
  <defs>
    <linearGradient id="cakeGrad" x1="0%" y1="0%" x2="0%" y2="100%">
      <stop offset="0%" style="stop-color:#FFB6C1"/>
      <stop offset="100%" style="stop-color:#FF69B4"/>
    </linearGradient>
  </defs>
  
  <!-- Cake body -->
  <ellipse cx="100" cy="140" rx="70" ry="40" fill="url(#cakeGrad)"/>
  <rect x="30" y="100" width="140" height="40" fill="url(#cakeGrad)"/>
  <ellipse cx="100" cy="100" rx="70" ry="25" fill="#FFD1DC"/>
  
  <!-- Frosting drips -->
  <path d="M40,100 Q45,115 40,110 Q35,105 40,100" fill="white"/>
  <path d="M70,100 Q75,120 70,115 Q65,110 70,100" fill="white"/>
  <path d="M130,100 Q135,118 130,113 Q125,108 130,100" fill="white"/>
  <path d="M160,100 Q165,112 160,107 Q155,102 160,100" fill="white"/>
  
  <!-- Candles -->
  <rect x="70" y="55" width="8" height="45" fill="#87CEEB" rx="2"/>
  <rect x="96" y="45" width="8" height="55" fill="#FFB347" rx="2"/>
  <rect x="122" y="55" width="8" height="45" fill="#98FB98" rx="2"/>
  
  <!-- Flames -->
  <ellipse cx="74" cy="48" rx="6" ry="10" fill="#FFD700"/>
  <ellipse cx="74" cy="50" rx="3" ry="6" fill="#FFA500"/>
  <ellipse cx="100" cy="38" rx="6" ry="10" fill="#FFD700"/>
  <ellipse cx="100" cy="40" rx="3" ry="6" fill="#FFA500"/>
  <ellipse cx="126" cy="48" rx="6" ry="10" fill="#FFD700"/>
  <ellipse cx="126" cy="50" rx="3" ry="6" fill="#FFA500"/>
  
  <!-- Happy face on cake -->
  <circle cx="80" cy="120" r="5" fill="#333"/>
  <circle cx="120" cy="120" r="5" fill="#333"/>
  <path d="M85,135 Q100,150 115,135" fill="none" stroke="#333" stroke-width="3" stroke-linecap="round"/>
</svg>